<?xml version="1.0" encoding="UTF-8" standalone="no"?>
<!DOCTYPE svg PUBLIC "-//W3C//DTD SVG 1.1//EN"
 "http://www.w3.org/Graphics/SVG/1.1/DTD/svg11.dtd">
<!-- Generated by graphviz version 14.1.2 (20260124.0452)
 -->
<!-- Title: G Pages: 1 -->
<svg width="301pt" height="188pt"
 viewBox="0.00 0.00 301.00 188.00" xmlns="http://www.w3.org/2000/svg" xmlns:xlink="http://www.w3.org/1999/xlink">
<g id="graph0" class="graph" transform="scale(1 1) rotate(0) translate(4 184)">
<title>G</title><style>.edge>path:hover{stroke-width:8}</style>
<polygon fill="white" stroke="none" points="-4,4 -4,-184 296.62,-184 296.62,4 -4,4"/>
<!-- src_db -->
<g id="node1" class="node">
<title>src_db</title><style>.edge>path:hover{stroke-width:8}</style>
<ellipse fill="#ce3b3b" stroke="black" cx="99.08" cy="-162" rx="27" ry="18"/>
<text xml:space="preserve" text-anchor="middle" x="99.08" y="-158.12" font-family="Helvetica,sans-Serif" font-size="10.00" fill="#ffffff">src.db</text>
</g>
<!-- src_load_data -->
<g id="node3" class="node">
<title>src_load_data</title><style>.edge>path:hover{stroke-width:8}</style>
<ellipse fill="#c04040" stroke="black" cx="44.08" cy="-90" rx="44.08" ry="18"/>
<text xml:space="preserve" text-anchor="middle" x="44.08" y="-86.12" font-family="Helvetica,sans-Serif" font-size="10.00" fill="#ffffff">src.load_data</text>
</g>
<!-- src_db&#45;&gt;src_load_data -->
<g id="edge1" class="edge">
<title>src_db&#45;&gt;src_load_data</title><style>.edge>path:hover{stroke-width:8}</style>
<path fill="none" stroke="black" d="M86.88,-145.46C80.16,-136.92 71.66,-126.1 64.01,-116.36"/>
<polygon fill="#ce3b3b" stroke="black" points="66.89,-114.36 57.95,-108.66 61.38,-118.68 66.89,-114.36"/>
</g>
<!-- src_query_data -->
<g id="node4" class="node">
<title>src_query_data</title><style>.edge>path:hover{stroke-width:8}</style>
<ellipse fill="#c04040" stroke="black" cx="154.08" cy="-90" rx="47.63" ry="18"/>
<text xml:space="preserve" text-anchor="middle" x="154.08" y="-86.12" font-family="Helvetica,sans-Serif" font-size="10.00" fill="#ffffff">src.query_data</text>
</g>
<!-- src_db&#45;&gt;src_query_data -->
<g id="edge2" class="edge">
<title>src_db&#45;&gt;src_query_data</title><style>.edge>path:hover{stroke-width:8}</style>
<path fill="none" stroke="black" d="M111.29,-145.46C118,-136.92 126.5,-126.1 134.15,-116.36"/>
<polygon fill="#ce3b3b" stroke="black" points="136.78,-118.68 140.21,-108.66 131.28,-114.36 136.78,-118.68"/>
</g>
<!-- src_flask_app -->
<g id="node2" class="node">
<title>src_flask_app</title><style>.edge>path:hover{stroke-width:8}</style>
<ellipse fill="#9d4343" stroke="black" cx="154.08" cy="-18" rx="44.08" ry="18"/>
<text xml:space="preserve" text-anchor="middle" x="154.08" y="-14.12" font-family="Helvetica,sans-Serif" font-size="10.00" fill="#ffffff">src.flask_app</text>
</g>
<!-- src_load_data&#45;&gt;src_flask_app -->
<g id="edge3" class="edge">
<title>src_load_data&#45;&gt;src_flask_app</title><style>.edge>path:hover{stroke-width:8}</style>
<path fill="none" stroke="black" d="M67.14,-74.33C82.98,-64.25 104.23,-50.72 121.76,-39.57"/>
<polygon fill="#c04040" stroke="black" points="123.22,-42.79 129.78,-34.47 119.46,-36.88 123.22,-42.79"/>
</g>
<!-- src_query_data&#45;&gt;src_flask_app -->
<g id="edge4" class="edge">
<title>src_query_data&#45;&gt;src_flask_app</title><style>.edge>path:hover{stroke-width:8}</style>
<path fill="none" stroke="black" d="M154.08,-71.7C154.08,-64.41 154.08,-55.73 154.08,-47.54"/>
<polygon fill="#c04040" stroke="black" points="157.58,-47.62 154.08,-37.62 150.58,-47.62 157.58,-47.62"/>
</g>
<!-- src_scrape -->
<g id="node5" class="node">
<title>src_scrape</title><style>.edge>path:hover{stroke-width:8}</style>
<ellipse fill="#c24747" stroke="black" cx="256.08" cy="-90" rx="36.54" ry="18"/>
<text xml:space="preserve" text-anchor="middle" x="256.08" y="-86.12" font-family="Helvetica,sans-Serif" font-size="10.00" fill="#ffffff">src.scrape</text>
</g>
<!-- src_scrape&#45;&gt;src_flask_app -->
<g id="edge5" class="edge">
<title>src_scrape&#45;&gt;src_flask_app</title><style>.edge>path:hover{stroke-width:8}</style>
<path fill="none" stroke="black" d="M235.44,-74.83C220.94,-64.88 201.29,-51.4 184.93,-40.17"/>
<polygon fill="#c24747" stroke="black" points="187.22,-37.5 177,-34.73 183.26,-43.27 187.22,-37.5"/>
</g>
</g>
</svg>
